<?xml version="1.0" encoding="utf-8" ?>
<svg baseProfile="tiny" height="100%" version="1.2" width="100%" xmlns="http://www.w3.org/2000/svg" xmlns:ev="http://www.w3.org/2001/xml-events" xmlns:xlink="http://www.w3.org/1999/xlink"><defs /><g fill="red" id="part1" stroke="blue"><polygon points="0,0 8,0 8,3 0,3" stroke-width="0.1" transform="translate(1247.9908999999998,0.0) scale(95.99929999999999,95.99929999999999)" /><polygon points="0,0 0.72,0 0.72,0.22 0.22,0.22 0.22,0.5 0,0.5" stroke-width="0.1" transform="translate(23.999824999999998,23.999824999999998) translate(1247.9908999999998,0.0) scale(95.99929999999999,95.99929999999999)" /><polygon points="0,0 0.72,0 0.72,0.22 0.22,0.22 0.22,0.5 0,0.5" stroke-width="0.1" transform="translate(743.9945749999999,23.999824999999998) translate(1247.9908999999998,0.0) scale(-95.99929999999999,95.99929999999999)" /><polygon points="0,0 0.72,0 0.72,0.22 0.22,0.22 0.22,0.5 0,0.5" stroke-width="0.1" transform="translate(743.9945749999999,263.998075) translate(1247.9908999999998,0.0) scale(-95.99929999999999,-95.99929999999999)" /><polygon points="0,0 0.72,0 0.72,0.22 0.22,0.22 0.22,0.5 0,0.5" stroke-width="0.1" transform="translate(23.999824999999998,263.998075) translate(1247.9908999999998,0.0) scale(95.99929999999999,-95.99929999999999)" /></g><g fill="red" id="part1" stroke="blue"><polygon points="0,0 0.5,0 0.5,0.22 6.56,0.22 6.56,0 7.06,0 7.06,0 7.06,2.5 7.28,2.5 7.28,3.5 7.06,3.5 7.06,6 7.06,6 6.56,6 6.56,5.78 0.5,5.78 0.5,6 0,6 0,6 0,3.5 -0.22,3.5 -0.22,2.5 0,2.5 0,0" stroke-width="0.1" transform="scale(95.99929999999999,95.99929999999999)" /></g><g fill="red" id="part1" stroke="blue"><polygon points="0,0 0.5,0 0.5,0.22 2.0,0.22 2.0,0 2.5,0 2.5,0 2.5,2.5 2.28,2.5 2.28,3.5 2.5,3.5 2.5,6 2.5,6 2.0,6 2.0,5.78 0.5,5.78 0.5,6 0,6 0,6 0,3.5 0.22,3.5 0.22,2.5 0,2.5 0,0" stroke-width="0.1" transform="translate(863.9936999999999,0.0) scale(95.99929999999999,95.99929999999999)" /></g><g fill="red" id="part1" stroke="blue"><polyline points="0,6 0.5,6 0.5,5.78 6.56,5.78 6.56,6 7.06,6 7.06,6 7.56,6 7.56,5.78 9.06,5.78 9.06,6 9.56,6 9.56,6 10.06,6 10.06,5.78 16.12,5.78 16.12,6 16.62,6 16.62,6 17.12,6 17.12,5.78 18.62,5.78 18.62,6 19.12,6" stroke-width="0.1" transform="translate(0.0,671.9951) scale(95.99929999999999,95.99929999999999)" /><polyline points="0,0 0.5,0 0.5,0.22 6.56,0.22 6.56,0 7.06,0 7.06,0 7.56,0 7.56,0.22 9.06,0.22 9.06,0 9.56,0 9.56,0 10.06,0 10.06,0.22 16.12,0.22 16.12,0 16.62,0 16.62,0 17.12,0 17.12,0.22 18.62,0.22 18.62,0 19.12,0" stroke-width="0.1" transform="translate(0.0,671.9951) scale(95.99929999999999,95.99929999999999)" /><polyline points="0,0 0,2.5 -0.22,2.5 -0.22,3.5 0,3.5 0,6" stroke-width="0.1" transform="translate(0.0,671.9951) scale(95.99929999999999,95.99929999999999)" /><polyline points="7.06,0 7.06,2.5 7.28,2.5 7.28,3.5 7.06,3.5 7.06,6" stroke-width="0.1" transform="translate(0.0,671.9951) scale(95.99929999999999,95.99929999999999)" /><polyline points="9.56,0 9.56,2.5 9.34,2.5 9.34,3.5 9.56,3.5 9.56,6" stroke-width="0.1" transform="translate(0.0,671.9951) scale(95.99929999999999,95.99929999999999)" /><polyline points="16.62,0 16.62,2.5 16.84,2.5 16.84,3.5 16.62,3.5 16.62,6" stroke-width="0.1" transform="translate(0.0,671.9951) scale(95.99929999999999,95.99929999999999)" /><polyline points="19.12,0 19.12,2.5 18.9,2.5 18.9,3.5 19.12,3.5 19.12,6" stroke-width="0.1" transform="translate(0.0,671.9951) scale(95.99929999999999,95.99929999999999)" /></g><g fill="red" id="part1" stroke="blue"><polygon points="0,0 8,0 8,6 0,6" stroke-width="0.1" transform="translate(0.0,1343.9902) scale(95.99929999999999,95.99929999999999)" /><polygon points="0,3 8,3" stroke-width="0.1" transform="translate(0.0,1343.9902) scale(95.99929999999999,95.99929999999999)" /><polygon points="0,0 0.72,0 0.72,0.22 0.22,0.22 0.22,0.5 0,0.5" stroke-width="0.1" transform="translate(23.999824999999998,23.999824999999998) translate(0.0,1343.9902) scale(95.99929999999999,95.99929999999999)" /><polygon points="0,0 0.72,0 0.72,0.22 0.22,0.22 0.22,0.5 0,0.5" stroke-width="0.1" transform="translate(743.9945749999999,23.999824999999998) translate(0.0,1343.9902) scale(-95.99929999999999,95.99929999999999)" /><polygon points="0,0 0.72,0 0.72,0.22 0.22,0.22 0.22,0.5 0,0.5" stroke-width="0.1" transform="translate(743.9945749999999,263.998075) translate(0.0,1343.9902) scale(-95.99929999999999,-95.99929999999999)" /><polygon points="0,0 0.72,0 0.72,0.22 0.22,0.22 0.22,0.5 0,0.5" stroke-width="0.1" transform="translate(23.999824999999998,263.998075) translate(0.0,1343.9902) scale(95.99929999999999,-95.99929999999999)" /><polygon points="0,0 0.72,0 0.72,0.22 0.22,0.22 0.22,0.5 0,0.5" stroke-width="0.1" transform="translate(23.999824999999998,311.99772499999995) translate(0.0,1343.9902) scale(95.99929999999999,95.99929999999999)" /><polygon points="0,0 0.72,0 0.72,0.22 0.22,0.22 0.22,0.5 0,0.5" stroke-width="0.1" transform="translate(743.9945749999999,311.99772499999995) translate(0.0,1343.9902) scale(-95.99929999999999,95.99929999999999)" /><polygon points="0,0 0.72,0 0.72,0.22 0.22,0.22 0.22,0.5 0,0.5" stroke-width="0.1" transform="translate(743.9945749999999,551.9959749999999) translate(0.0,1343.9902) scale(-95.99929999999999,-95.99929999999999)" /><polygon points="0,0 0.72,0 0.72,0.22 0.22,0.22 0.22,0.5 0,0.5" stroke-width="0.1" transform="translate(23.999824999999998,551.9959749999999) translate(0.0,1343.9902) scale(95.99929999999999,-95.99929999999999)" /></g></svg>