<?xml version="1.0" encoding="utf-8" ?>
<svg baseProfile="tiny" height="100%" version="1.2" width="100%" xmlns="http://www.w3.org/2000/svg" xmlns:ev="http://www.w3.org/2001/xml-events" xmlns:xlink="http://www.w3.org/1999/xlink"><defs /><g fill="red" id="part1" stroke="blue"><polygon points="0,0 8.0,0 8.0,7.0 0,7.0" stroke-width="0.1" transform="translate(1631.9880999999998,0.0) scale(95.99929999999999,95.99929999999999)" /><polygon points="0,0 0.72,0 0.72,0.22 0.22,0.22 0.22,0.5 0,0.5" stroke-width="0.1" transform="translate(11.999912499999999,11.999912499999999) translate(1631.9880999999998,0.0) scale(95.99929999999999,95.99929999999999)" /><polygon points="0,0 0.72,0 0.72,0.22 0.22,0.22 0.22,0.5 0,0.5" stroke-width="0.1" transform="translate(755.9944874999999,11.999912499999999) translate(1631.9880999999998,0.0) scale(-95.99929999999999,95.99929999999999)" /><polygon points="0,0 0.72,0 0.72,0.22 0.22,0.22 0.22,0.5 0,0.5" stroke-width="0.1" transform="translate(755.9944874999999,659.9951874999999) translate(1631.9880999999998,0.0) scale(-95.99929999999999,-95.99929999999999)" /><polygon points="0,0 0.72,0 0.72,0.22 0.22,0.22 0.22,0.5 0,0.5" stroke-width="0.1" transform="translate(11.999912499999999,659.9951874999999) translate(1631.9880999999998,0.0) scale(95.99929999999999,-95.99929999999999)" /></g><g fill="red" id="part1" stroke="blue"><polygon points="0,0 0.5,0 0.5,0.22 6.81,0.22 6.81,0 7.31,0 7.31,4.5 7.53,4.5 7.53,5.5 7.31,5.5 7.31,10.0 6.81,10.0 6.81,9.78 0.5,9.78 0.5,10.0 0,10.0 0,5.5 -0.22,5.5 -0.22,4.5 0,4.5" stroke-width="0.1" transform="scale(95.99929999999999,95.99929999999999)" /></g><g fill="red" id="part1" stroke="blue"><polygon points="0,0 0.5,0 0.5,0.22 6.25,0.22 6.25,0 6.75,0 6.75,4.5 6.53,4.5 6.53,5.5 6.75,5.5 6.75,10.0 6.25,10.0 6.25,9.78 0.5,9.78 0.5,10.0 0,10.0 0,5.5 0.22,5.5 0.22,4.5 0,4.5" stroke-width="0.1" transform="translate(863.9936999999999,0.0) scale(95.99929999999999,95.99929999999999)" /></g></svg>