<?xml version="1.0" encoding="utf-8" ?>
<svg baseProfile="tiny" height="100%" version="1.2" width="100%" xmlns="http://www.w3.org/2000/svg" xmlns:ev="http://www.w3.org/2001/xml-events" xmlns:xlink="http://www.w3.org/1999/xlink"><defs /><g fill="red" id="part1" stroke="blue"><polygon points="0,0 8,0 8,7 0,7" stroke-width="0.1" transform="translate(1631.9880999999998,0.0) scale(95.99929999999999,95.99929999999999)" /><polygon points="0,0 0.72,0 0.72,0.22 0.22,0.22 0.22,0.5 0,0.5" stroke-width="0.1" transform="translate(23.999824999999998,23.999824999999998) translate(1631.9880999999998,0.0) scale(95.99929999999999,95.99929999999999)" /><polygon points="0,0 0.72,0 0.72,0.22 0.22,0.22 0.22,0.5 0,0.5" stroke-width="0.1" transform="translate(743.9945749999999,23.999824999999998) translate(1631.9880999999998,0.0) scale(-95.99929999999999,95.99929999999999)" /><polygon points="0,0 0.72,0 0.72,0.22 0.22,0.22 0.22,0.5 0,0.5" stroke-width="0.1" transform="translate(743.9945749999999,647.995275) translate(1631.9880999999998,0.0) scale(-95.99929999999999,-95.99929999999999)" /><polygon points="0,0 0.72,0 0.72,0.22 0.22,0.22 0.22,0.5 0,0.5" stroke-width="0.1" transform="translate(23.999824999999998,647.995275) translate(1631.9880999999998,0.0) scale(95.99929999999999,-95.99929999999999)" /></g><g fill="red" id="part1" stroke="blue"><polygon points="0,0 0.5,0 0.5,0.22 6.56,0.22 6.56,0 7.06,0 7.06,0 7.06,2.5 7.28,2.5 7.28,3.5 7.06,3.5 7.06,6 7.06,6 6.56,6 6.56,5.78 0.5,5.78 0.5,6 0,6 0,6 0,3.5 -0.22,3.5 -0.22,2.5 0,2.5 0,0" stroke-width="0.1" transform="scale(95.99929999999999,95.99929999999999)" /></g><g fill="red" id="part1" stroke="blue"><polygon points="0,0 0.5,0 0.5,0.22 6.0,0.22 6.0,0 6.5,0 6.5,0 6.5,2.5 6.28,2.5 6.28,3.5 6.5,3.5 6.5,6 6.5,6 6.0,6 6.0,5.78 0.5,5.78 0.5,6 0,6 0,6 0,3.5 0.22,3.5 0.22,2.5 0,2.5 0,0" stroke-width="0.1" transform="translate(863.9936999999999,0.0) scale(95.99929999999999,95.99929999999999)" /></g><g fill="red" id="part1" stroke="blue"><polyline points="0,6 0.5,6 0.5,5.78 6.56,5.78 6.56,6 7.06,6 7.06,6 7.56,6 7.56,5.78 13.06,5.78 13.06,6 13.56,6 13.56,6 14.06,6 14.06,5.78 20.12,5.78 20.12,6 20.62,6 20.62,6 21.12,6 21.12,5.78 26.62,5.78 26.62,6 27.12,6" stroke-width="0.1" transform="translate(0.0,671.9951) scale(95.99929999999999,95.99929999999999)" /><polyline points="0,0 0.5,0 0.5,0.22 6.56,0.22 6.56,0 7.06,0 7.06,0 7.56,0 7.56,0.22 13.06,0.22 13.06,0 13.56,0 13.56,0 14.06,0 14.06,0.22 20.12,0.22 20.12,0 20.62,0 20.62,0 21.12,0 21.12,0.22 26.62,0.22 26.62,0 27.12,0" stroke-width="0.1" transform="translate(0.0,671.9951) scale(95.99929999999999,95.99929999999999)" /><polyline points="0,0 0,2.5 -0.22,2.5 -0.22,3.5 0,3.5 0,6" stroke-width="0.1" transform="translate(0.0,671.9951) scale(95.99929999999999,95.99929999999999)" /><polyline points="7.06,0 7.06,2.5 7.28,2.5 7.28,3.5 7.06,3.5 7.06,6" stroke-width="0.1" transform="translate(0.0,671.9951) scale(95.99929999999999,95.99929999999999)" /><polyline points="13.56,0 13.56,2.5 13.34,2.5 13.34,3.5 13.56,3.5 13.56,6" stroke-width="0.1" transform="translate(0.0,671.9951) scale(95.99929999999999,95.99929999999999)" /><polyline points="20.62,0 20.62,2.5 20.84,2.5 20.84,3.5 20.62,3.5 20.62,6" stroke-width="0.1" transform="translate(0.0,671.9951) scale(95.99929999999999,95.99929999999999)" /><polyline points="27.12,0 27.12,2.5 26.9,2.5 26.9,3.5 27.12,3.5 27.12,6" stroke-width="0.1" transform="translate(0.0,671.9951) scale(95.99929999999999,95.99929999999999)" /></g><g fill="red" id="part1" stroke="blue"><polygon points="0,0 8,0 8,14 0,14" stroke-width="0.1" transform="translate(0.0,1343.9902) scale(95.99929999999999,95.99929999999999)" /><polygon points="0,7 8,7" stroke-width="0.1" transform="translate(0.0,1343.9902) scale(95.99929999999999,95.99929999999999)" /><polygon points="0,0 0.72,0 0.72,0.22 0.22,0.22 0.22,0.5 0,0.5" stroke-width="0.1" transform="translate(23.999824999999998,23.999824999999998) translate(0.0,1343.9902) scale(95.99929999999999,95.99929999999999)" /><polygon points="0,0 0.72,0 0.72,0.22 0.22,0.22 0.22,0.5 0,0.5" stroke-width="0.1" transform="translate(743.9945749999999,23.999824999999998) translate(0.0,1343.9902) scale(-95.99929999999999,95.99929999999999)" /><polygon points="0,0 0.72,0 0.72,0.22 0.22,0.22 0.22,0.5 0,0.5" stroke-width="0.1" transform="translate(743.9945749999999,647.995275) translate(0.0,1343.9902) scale(-95.99929999999999,-95.99929999999999)" /><polygon points="0,0 0.72,0 0.72,0.22 0.22,0.22 0.22,0.5 0,0.5" stroke-width="0.1" transform="translate(23.999824999999998,647.995275) translate(0.0,1343.9902) scale(95.99929999999999,-95.99929999999999)" /><polygon points="0,0 0.72,0 0.72,0.22 0.22,0.22 0.22,0.5 0,0.5" stroke-width="0.1" transform="translate(23.999824999999998,695.994925) translate(0.0,1343.9902) scale(95.99929999999999,95.99929999999999)" /><polygon points="0,0 0.72,0 0.72,0.22 0.22,0.22 0.22,0.5 0,0.5" stroke-width="0.1" transform="translate(743.9945749999999,695.994925) translate(0.0,1343.9902) scale(-95.99929999999999,95.99929999999999)" /><polygon points="0,0 0.72,0 0.72,0.22 0.22,0.22 0.22,0.5 0,0.5" stroke-width="0.1" transform="translate(743.9945749999999,1319.9903749999999) translate(0.0,1343.9902) scale(-95.99929999999999,-95.99929999999999)" /><polygon points="0,0 0.72,0 0.72,0.22 0.22,0.22 0.22,0.5 0,0.5" stroke-width="0.1" transform="translate(23.999824999999998,1319.9903749999999) translate(0.0,1343.9902) scale(95.99929999999999,-95.99929999999999)" /></g></svg>