<?xml version="1.0" encoding="utf-8" ?>
<svg baseProfile="tiny" height="100%" version="1.2" width="100%" xmlns="http://www.w3.org/2000/svg" xmlns:ev="http://www.w3.org/2001/xml-events" xmlns:xlink="http://www.w3.org/1999/xlink"><defs /><g fill="red" id="part1" stroke="blue"><polygon points="0,0 8,0 8,7 0,7" stroke-width="0.1" transform="translate(1631.9880999999998,0.0) scale(95.99929999999999,95.99929999999999)" /><polygon points="0,0 0.72,0 0.72,0.22 0.22,0.22 0.22,0.5 0,0.5" stroke-width="0.1" transform="translate(23.999824999999998,23.999824999999998) translate(1631.9880999999998,0.0) scale(95.99929999999999,95.99929999999999)" /><polygon points="0,0 0.72,0 0.72,0.22 0.22,0.22 0.22,0.5 0,0.5" stroke-width="0.1" transform="translate(743.9945749999999,23.999824999999998) translate(1631.9880999999998,0.0) scale(-95.99929999999999,95.99929999999999)" /><polygon points="0,0 0.72,0 0.72,0.22 0.22,0.22 0.22,0.5 0,0.5" stroke-width="0.1" transform="translate(743.9945749999999,647.995275) translate(1631.9880999999998,0.0) scale(-95.99929999999999,-95.99929999999999)" /><polygon points="0,0 0.72,0 0.72,0.22 0.22,0.22 0.22,0.5 0,0.5" stroke-width="0.1" transform="translate(23.999824999999998,647.995275) translate(1631.9880999999998,0.0) scale(95.99929999999999,-95.99929999999999)" /></g><g fill="red" id="part1" stroke="blue"><polygon points="0,0 0.5,0 0.5,0.22 6.56,0.22 6.56,0 7.06,0 7.06,4.5 7.28,4.5 7.28,5.5 7.06,5.5 7.06,10 6.56,10 6.56,9.78 0.5,9.78 0.5,10 0,10 0,5.5 -0.22,5.5 -0.22,4.5 0,4.5" stroke-width="0.1" transform="scale(95.99929999999999,95.99929999999999)" /></g><g fill="red" id="part1" stroke="blue"><polygon points="0,0 0.5,0 0.5,0.22 6.0,0.22 6.0,0 6.5,0 6.5,4.5 6.28,4.5 6.28,5.5 6.5,5.5 6.5,10 6.0,10 6.0,9.78 0.5,9.78 0.5,10 0,10 0,5.5 0.22,5.5 0.22,4.5 0,4.5" stroke-width="0.1" transform="translate(863.9936999999999,0.0) scale(95.99929999999999,95.99929999999999)" /></g><g fill="red" id="part1" stroke="blue"><polyline points="0,10 0.5,10 0.5,9.78 6.56,9.78 6.56,10 7.06,10 7.06,10 7.56,10 7.56,9.78 13.06,9.78 13.06,10 13.56,10 13.56,10 14.06,10 14.06,9.78 20.12,9.78 20.12,10 20.62,10 20.62,10 21.12,10 21.12,9.78 26.62,9.78 26.62,10 27.12,10" stroke-width="0.1" transform="translate(0.0,1055.9923) scale(95.99929999999999,95.99929999999999)" /><polyline points="0,0 0.5,0 0.5,0.22 6.56,0.22 6.56,0 7.06,0 7.06,0 7.56,0 7.56,0.22 13.06,0.22 13.06,0 13.56,0 13.56,0 14.06,0 14.06,0.22 20.12,0.22 20.12,0 20.62,0 20.62,0 21.12,0 21.12,0.22 26.62,0.22 26.62,0 27.12,0" stroke-width="0.1" transform="translate(0.0,1055.9923) scale(95.99929999999999,95.99929999999999)" /><polyline points="0,0 0,4.5 -0.22,4.5 -0.22,5.5 0,5.5 0,10" stroke-width="0.1" transform="translate(0.0,1055.9923) scale(95.99929999999999,95.99929999999999)" /><polyline points="7.06,0 7.06,4.5 7.28,4.5 7.28,5.5 7.06,5.5 7.06,10" stroke-width="0.1" transform="translate(0.0,1055.9923) scale(95.99929999999999,95.99929999999999)" /><polyline points="13.56,0 13.56,4.5 13.34,4.5 13.34,5.5 13.56,5.5 13.56,10" stroke-width="0.1" transform="translate(0.0,1055.9923) scale(95.99929999999999,95.99929999999999)" /><polyline points="20.62,0 20.62,4.5 20.84,4.5 20.84,5.5 20.62,5.5 20.62,10" stroke-width="0.1" transform="translate(0.0,1055.9923) scale(95.99929999999999,95.99929999999999)" /><polyline points="27.12,0 27.12,4.5 26.9,4.5 26.9,5.5 27.12,5.5 27.12,10" stroke-width="0.1" transform="translate(0.0,1055.9923) scale(95.99929999999999,95.99929999999999)" /></g><g fill="red" id="part1" stroke="blue"><polygon points="0,0 8,0 8,14 0,14" stroke-width="0.1" transform="translate(0.0,2111.9846) scale(95.99929999999999,95.99929999999999)" /><polygon points="0,7 8,7" stroke-width="0.1" transform="translate(0.0,2111.9846) scale(95.99929999999999,95.99929999999999)" /><polygon points="0,0 0.72,0 0.72,0.22 0.22,0.22 0.22,0.5 0,0.5" stroke-width="0.1" transform="translate(23.999824999999998,23.999824999999998) translate(0.0,2111.9846) scale(95.99929999999999,95.99929999999999)" /><polygon points="0,0 0.72,0 0.72,0.22 0.22,0.22 0.22,0.5 0,0.5" stroke-width="0.1" transform="translate(743.9945749999999,23.999824999999998) translate(0.0,2111.9846) scale(-95.99929999999999,95.99929999999999)" /><polygon points="0,0 0.72,0 0.72,0.22 0.22,0.22 0.22,0.5 0,0.5" stroke-width="0.1" transform="translate(743.9945749999999,647.995275) translate(0.0,2111.9846) scale(-95.99929999999999,-95.99929999999999)" /><polygon points="0,0 0.72,0 0.72,0.22 0.22,0.22 0.22,0.5 0,0.5" stroke-width="0.1" transform="translate(23.999824999999998,647.995275) translate(0.0,2111.9846) scale(95.99929999999999,-95.99929999999999)" /><polygon points="0,0 0.72,0 0.72,0.22 0.22,0.22 0.22,0.5 0,0.5" stroke-width="0.1" transform="translate(23.999824999999998,695.994925) translate(0.0,2111.9846) scale(95.99929999999999,95.99929999999999)" /><polygon points="0,0 0.72,0 0.72,0.22 0.22,0.22 0.22,0.5 0,0.5" stroke-width="0.1" transform="translate(743.9945749999999,695.994925) translate(0.0,2111.9846) scale(-95.99929999999999,95.99929999999999)" /><polygon points="0,0 0.72,0 0.72,0.22 0.22,0.22 0.22,0.5 0,0.5" stroke-width="0.1" transform="translate(743.9945749999999,1319.9903749999999) translate(0.0,2111.9846) scale(-95.99929999999999,-95.99929999999999)" /><polygon points="0,0 0.72,0 0.72,0.22 0.22,0.22 0.22,0.5 0,0.5" stroke-width="0.1" transform="translate(23.999824999999998,1319.9903749999999) translate(0.0,2111.9846) scale(95.99929999999999,-95.99929999999999)" /></g></svg>