<?xml version="1.0" encoding="utf-8" ?>
<svg baseProfile="tiny" height="100%" version="1.2" width="100%" xmlns="http://www.w3.org/2000/svg" xmlns:ev="http://www.w3.org/2001/xml-events" xmlns:xlink="http://www.w3.org/1999/xlink"><defs /><g fill="red" id="part1" stroke="blue"><polygon points="0,0 28,0 28,25 0,25" stroke-width="0.1" transform="translate(-2783.9797,0.0) scale(95.99929999999999,95.99929999999999)" /><polygon points="0,0 0.72,0 0.72,0.22 0.22,0.22 0.22,0.5 0,0.5" stroke-width="0.1" transform="translate(23.999824999999998,23.999824999999998) translate(-2783.9797,0.0) scale(95.99929999999999,95.99929999999999)" /><polygon points="0,0 0.72,0 0.72,0.22 0.22,0.22 0.22,0.5 0,0.5" stroke-width="0.1" transform="translate(2663.9805749999996,23.999824999999998) translate(-2783.9797,0.0) scale(-95.99929999999999,95.99929999999999)" /><polygon points="0,0 0.72,0 0.72,0.22 0.22,0.22 0.22,0.5 0,0.5" stroke-width="0.1" transform="translate(2663.9805749999996,2375.9826749999997) translate(-2783.9797,0.0) scale(-95.99929999999999,-95.99929999999999)" /><polygon points="0,0 0.72,0 0.72,0.22 0.22,0.22 0.22,0.5 0,0.5" stroke-width="0.1" transform="translate(23.999824999999998,2375.9826749999997) translate(-2783.9797,0.0) scale(95.99929999999999,-95.99929999999999)" /><polygon points="0,0 1.0,0 1.0,0.22 0,0.22" stroke-width="0.1" transform="translate(1295.99055,23.999824999999998) translate(-2783.9797,0.0) scale(95.99929999999999,95.99929999999999)" /><polygon points="0,0 1.0,0 1.0,0.22 0,0.22" stroke-width="0.1" transform="translate(1295.99055,2351.98285) translate(-2783.9797,0.0) scale(95.99929999999999,95.99929999999999)" /><polygon points="0,0 0.22,0 0.22,1.0 0,1.0" stroke-width="0.1" transform="translate(23.999824999999998,1151.9915999999998) translate(-2783.9797,0.0) scale(95.99929999999999,95.99929999999999)" /><polygon points="0,0 0.22,0 0.22,1.0 0,1.0" stroke-width="0.1" transform="translate(2639.9807499999997,1151.9915999999998) translate(-2783.9797,0.0) scale(95.99929999999999,95.99929999999999)" /></g><g fill="red" id="part1" stroke="blue"><polygon points="0,0 0.5,0 0.5,0.22 13.03,0.22 13.03,0 14.03,0 14.03,0.22 26.56,0.22 26.56,0 27.06,0 27.06,0 27.06,4.5 27.28,4.5 27.28,5.5 27.06,5.5 27.06,10 27.06,10 26.56,10 26.56,9.78 14.03,9.78 14.03,10 13.03,10 13.03,9.78 0.5,9.78 0.5,10 0,10 0,10 0,5.5 -0.22,5.5 -0.22,4.5 0,4.5 0,0" stroke-width="0.1" transform="scale(95.99929999999999,95.99929999999999)" /></g><g fill="red" id="part1" stroke="blue"><polygon points="0,0 0.5,0 0.5,0.22 11.75,0.22 11.75,0 12.75,0 12.75,0.22 24.0,0.22 24.0,0 24.5,0 24.5,0 24.5,4.5 24.28,4.5 24.28,5.5 24.5,5.5 24.5,10 24.5,10 24.0,10 24.0,9.78 12.75,9.78 12.75,10 11.75,10 11.75,9.78 0.5,9.78 0.5,10 0,10 0,10 0,5.5 0.22,5.5 0.22,4.5 0,4.5 0,0" stroke-width="0.1" transform="translate(2783.9797,0.0) scale(95.99929999999999,95.99929999999999)" /></g><g fill="red" id="part1" stroke="blue"><polyline points="0,10 0.5,10 0.5,9.78 13.03,9.78 13.03,10 14.03,10 14.03,9.78 26.56,9.78 26.56,10 27.06,10 27.06,10 27.56,10 27.56,9.78 38.81,9.78 38.81,10 39.81,10 39.81,9.78 51.06,9.78 51.06,10 51.56,10 51.56,10 52.06,10 52.06,9.78 64.59,9.78 64.59,10 65.59,10 65.59,9.78 78.12,9.78 78.12,10 78.62,10 78.62,10 79.12,10 79.12,9.78 90.37,9.78 90.37,10 91.37,10 91.37,9.78 102.62,9.78 102.62,10 103.12,10" stroke-width="0.1" transform="translate(0.0,1055.9923) scale(95.99929999999999,95.99929999999999)" /><polyline points="0,0 0.5,0 0.5,0.22 13.03,0.22 13.03,0 14.03,0 14.03,0.22 26.56,0.22 26.56,0 27.06,0 27.06,0 27.56,0 27.56,0.22 38.81,0.22 38.81,0 39.81,0 39.81,0.22 51.06,0.22 51.06,0 51.56,0 51.56,0 52.06,0 52.06,0.22 64.59,0.22 64.59,0 65.59,0 65.59,0.22 78.12,0.22 78.12,0 78.62,0 78.62,0 79.12,0 79.12,0.22 90.37,0.22 90.37,0 91.37,0 91.37,0.22 102.62,0.22 102.62,0 103.12,0" stroke-width="0.1" transform="translate(0.0,1055.9923) scale(95.99929999999999,95.99929999999999)" /><polyline points="0,0 0,4.5 -0.22,4.5 -0.22,5.5 0,5.5 0,10" stroke-width="0.1" transform="translate(0.0,1055.9923) scale(95.99929999999999,95.99929999999999)" /><polyline points="27.06,0 27.06,4.5 27.28,4.5 27.28,5.5 27.06,5.5 27.06,10" stroke-width="0.1" transform="translate(0.0,1055.9923) scale(95.99929999999999,95.99929999999999)" /><polyline points="51.56,0 51.56,4.5 51.34,4.5 51.34,5.5 51.56,5.5 51.56,10" stroke-width="0.1" transform="translate(0.0,1055.9923) scale(95.99929999999999,95.99929999999999)" /><polyline points="78.62,0 78.62,4.5 78.84,4.5 78.84,5.5 78.62,5.5 78.62,10" stroke-width="0.1" transform="translate(0.0,1055.9923) scale(95.99929999999999,95.99929999999999)" /><polyline points="103.12,0 103.12,4.5 102.9,4.5 102.9,5.5 103.12,5.5 103.12,10" stroke-width="0.1" transform="translate(0.0,1055.9923) scale(95.99929999999999,95.99929999999999)" /></g><g fill="red" id="part1" stroke="blue"><polygon points="0,0 28,0 28,50 0,50" stroke-width="0.1" transform="translate(0.0,2111.9846) scale(95.99929999999999,95.99929999999999)" /><polygon points="0,25 28,25" stroke-width="0.1" transform="translate(0.0,2111.9846) scale(95.99929999999999,95.99929999999999)" /><polygon points="0,0 0.72,0 0.72,0.22 0.22,0.22 0.22,0.5 0,0.5" stroke-width="0.1" transform="translate(23.999824999999998,23.999824999999998) translate(0.0,2111.9846) scale(95.99929999999999,95.99929999999999)" /><polygon points="0,0 0.72,0 0.72,0.22 0.22,0.22 0.22,0.5 0,0.5" stroke-width="0.1" transform="translate(2663.9805749999996,23.999824999999998) translate(0.0,2111.9846) scale(-95.99929999999999,95.99929999999999)" /><polygon points="0,0 0.72,0 0.72,0.22 0.22,0.22 0.22,0.5 0,0.5" stroke-width="0.1" transform="translate(2663.9805749999996,2375.9826749999997) translate(0.0,2111.9846) scale(-95.99929999999999,-95.99929999999999)" /><polygon points="0,0 0.72,0 0.72,0.22 0.22,0.22 0.22,0.5 0,0.5" stroke-width="0.1" transform="translate(23.999824999999998,2375.9826749999997) translate(0.0,2111.9846) scale(95.99929999999999,-95.99929999999999)" /><polygon points="0,0 1.0,0 1.0,0.22 0,0.22" stroke-width="0.1" transform="translate(1295.99055,23.999824999999998) translate(0.0,2111.9846) scale(95.99929999999999,95.99929999999999)" /><polygon points="0,0 1.0,0 1.0,0.22 0,0.22" stroke-width="0.1" transform="translate(1295.99055,2351.98285) translate(0.0,2111.9846) scale(95.99929999999999,95.99929999999999)" /><polygon points="0,0 0.22,0 0.22,1.0 0,1.0" stroke-width="0.1" transform="translate(23.999824999999998,1151.9915999999998) translate(0.0,2111.9846) scale(95.99929999999999,95.99929999999999)" /><polygon points="0,0 0.22,0 0.22,1.0 0,1.0" stroke-width="0.1" transform="translate(2639.9807499999997,1151.9915999999998) translate(0.0,2111.9846) scale(95.99929999999999,95.99929999999999)" /><polygon points="0,0 0.72,0 0.72,0.22 0.22,0.22 0.22,0.5 0,0.5" stroke-width="0.1" transform="translate(23.999824999999998,2423.982325) translate(0.0,2111.9846) scale(95.99929999999999,95.99929999999999)" /><polygon points="0,0 0.72,0 0.72,0.22 0.22,0.22 0.22,0.5 0,0.5" stroke-width="0.1" transform="translate(2663.9805749999996,2423.982325) translate(0.0,2111.9846) scale(-95.99929999999999,95.99929999999999)" /><polygon points="0,0 0.72,0 0.72,0.22 0.22,0.22 0.22,0.5 0,0.5" stroke-width="0.1" transform="translate(2663.9805749999996,4775.965174999999) translate(0.0,2111.9846) scale(-95.99929999999999,-95.99929999999999)" /><polygon points="0,0 0.72,0 0.72,0.22 0.22,0.22 0.22,0.5 0,0.5" stroke-width="0.1" transform="translate(23.999824999999998,4775.965174999999) translate(0.0,2111.9846) scale(95.99929999999999,-95.99929999999999)" /><polygon points="0,0 1.0,0 1.0,0.22 0,0.22" stroke-width="0.1" transform="translate(1295.99055,2423.982325) translate(0.0,2111.9846) scale(95.99929999999999,95.99929999999999)" /><polygon points="0,0 1.0,0 1.0,0.22 0,0.22" stroke-width="0.1" transform="translate(1295.99055,4751.9653499999995) translate(0.0,2111.9846) scale(95.99929999999999,95.99929999999999)" /><polygon points="0,0 0.22,0 0.22,1.0 0,1.0" stroke-width="0.1" transform="translate(23.999824999999998,3551.9740999999995) translate(0.0,2111.9846) scale(95.99929999999999,95.99929999999999)" /><polygon points="0,0 0.22,0 0.22,1.0 0,1.0" stroke-width="0.1" transform="translate(2639.9807499999997,3551.9740999999995) translate(0.0,2111.9846) scale(95.99929999999999,95.99929999999999)" /></g></svg>