<?xml version="1.0" encoding="utf-8" ?>
<svg baseProfile="tiny" height="100%" version="1.2" width="100%" xmlns="http://www.w3.org/2000/svg" xmlns:ev="http://www.w3.org/2001/xml-events" xmlns:xlink="http://www.w3.org/1999/xlink"><defs /><g fill="red" id="part1" stroke="blue"><polygon points="0,0 7.0,0 7.0,6.0 0,6.0" stroke-width="0.1" transform="translate(1439.9895,0.0) scale(95.99929999999999,95.99929999999999)" /><polygon points="0,0 0.72,0 0.72,0.22 0.22,0.22 0.22,0.5 0,0.5" stroke-width="0.1" transform="translate(11.999912499999999,11.999912499999999) translate(1439.9895,0.0) scale(95.99929999999999,95.99929999999999)" /><polygon points="0,0 0.72,0 0.72,0.22 0.22,0.22 0.22,0.5 0,0.5" stroke-width="0.1" transform="translate(659.9951874999999,11.999912499999999) translate(1439.9895,0.0) scale(-95.99929999999999,95.99929999999999)" /><polygon points="0,0 0.72,0 0.72,0.22 0.22,0.22 0.22,0.5 0,0.5" stroke-width="0.1" transform="translate(659.9951874999999,563.9958875) translate(1439.9895,0.0) scale(-95.99929999999999,-95.99929999999999)" /><polygon points="0,0 0.72,0 0.72,0.22 0.22,0.22 0.22,0.5 0,0.5" stroke-width="0.1" transform="translate(11.999912499999999,563.9958875) translate(1439.9895,0.0) scale(95.99929999999999,-95.99929999999999)" /></g><g fill="red" id="part1" stroke="blue"><polygon points="0,0 0.5,0 0.5,0.22 5.81,0.22 5.81,0 6.31,0 6.31,3.5 6.53,3.5 6.53,4.5 6.31,4.5 6.31,8.0 5.81,8.0 5.81,7.78 0.5,7.78 0.5,8.0 0,8.0 0,4.5 -0.22,4.5 -0.22,3.5 0,3.5" stroke-width="0.1" transform="scale(95.99929999999999,95.99929999999999)" /></g><g fill="red" id="part1" stroke="blue"><polygon points="0,0 0.5,0 0.5,0.22 5.25,0.22 5.25,0 5.75,0 5.75,3.5 5.53,3.5 5.53,4.5 5.75,4.5 5.75,8.0 5.25,8.0 5.25,7.78 0.5,7.78 0.5,8.0 0,8.0 0,4.5 0.22,4.5 0.22,3.5 0,3.5" stroke-width="0.1" transform="translate(767.9943999999999,0.0) scale(95.99929999999999,95.99929999999999)" /></g></svg>