<?xml version="1.0" encoding="utf-8" ?>
<svg baseProfile="tiny" height="100%" version="1.2" width="100%" xmlns="http://www.w3.org/2000/svg" xmlns:ev="http://www.w3.org/2001/xml-events" xmlns:xlink="http://www.w3.org/1999/xlink"><defs /><g fill="red" id="part1" stroke="blue"><polygon points="0,0 25,0 25,8 0,8" stroke-width="0.1" transform="translate(3359.9754999999996,0.0) scale(95.99929999999999,95.99929999999999)" /><polygon points="0,0 0.72,0 0.72,0.22 0.22,0.22 0.22,0.5 0,0.5" stroke-width="0.1" transform="translate(23.999824999999998,23.999824999999998) translate(3359.9754999999996,0.0) scale(95.99929999999999,95.99929999999999)" /><polygon points="0,0 0.72,0 0.72,0.22 0.22,0.22 0.22,0.5 0,0.5" stroke-width="0.1" transform="translate(2375.9826749999997,23.999824999999998) translate(3359.9754999999996,0.0) scale(-95.99929999999999,95.99929999999999)" /><polygon points="0,0 0.72,0 0.72,0.22 0.22,0.22 0.22,0.5 0,0.5" stroke-width="0.1" transform="translate(2375.9826749999997,743.9945749999999) translate(3359.9754999999996,0.0) scale(-95.99929999999999,-95.99929999999999)" /><polygon points="0,0 0.72,0 0.72,0.22 0.22,0.22 0.22,0.5 0,0.5" stroke-width="0.1" transform="translate(23.999824999999998,743.9945749999999) translate(3359.9754999999996,0.0) scale(95.99929999999999,-95.99929999999999)" /></g><g fill="red" id="part1" stroke="blue"><polygon points="0,0 0.5,0 0.5,0.22 11.53,0.22 11.53,0 12.53,0 12.53,0.22 23.56,0.22 23.56,0 24.06,0 24.06,0 24.06,4.5 24.28,4.5 24.28,5.5 24.06,5.5 24.06,10 24.06,10 23.56,10 23.56,9.78 12.53,9.78 12.53,10 11.53,10 11.53,9.78 0.5,9.78 0.5,10 0,10 0,10 0,5.5 -0.22,5.5 -0.22,4.5 0,4.5 0,0" stroke-width="0.1" transform="scale(95.99929999999999,95.99929999999999)" /></g><g fill="red" id="part1" stroke="blue"><polygon points="0,0 0.5,0 0.5,0.22 7.0,0.22 7.0,0 7.5,0 7.5,0 7.5,4.5 7.28,4.5 7.28,5.5 7.5,5.5 7.5,10 7.5,10 7.0,10 7.0,9.78 0.5,9.78 0.5,10 0,10 0,10 0,5.5 0.22,5.5 0.22,4.5 0,4.5 0,0" stroke-width="0.1" transform="translate(2495.9817999999996,0.0) scale(95.99929999999999,95.99929999999999)" /></g><g fill="red" id="part1" stroke="blue"><polyline points="0,10 0.5,10 0.5,9.78 11.53,9.78 11.53,10 12.53,10 12.53,9.78 23.56,9.78 23.56,10 24.06,10 24.06,10 24.56,10 24.56,9.78 31.06,9.78 31.06,10 31.56,10 31.56,10 32.06,10 32.06,9.78 43.09,9.78 43.09,10 44.09,10 44.09,9.78 55.12,9.78 55.12,10 55.62,10 55.62,10 56.12,10 56.12,9.78 62.62,9.78 62.62,10 63.12,10" stroke-width="0.1" transform="translate(0.0,1055.9923) scale(95.99929999999999,95.99929999999999)" /><polyline points="0,0 0.5,0 0.5,0.22 11.53,0.22 11.53,0 12.53,0 12.53,0.22 23.56,0.22 23.56,0 24.06,0 24.06,0 24.56,0 24.56,0.22 31.06,0.22 31.06,0 31.56,0 31.56,0 32.06,0 32.06,0.22 43.09,0.22 43.09,0 44.09,0 44.09,0.22 55.12,0.22 55.12,0 55.62,0 55.62,0 56.12,0 56.12,0.22 62.62,0.22 62.62,0 63.12,0" stroke-width="0.1" transform="translate(0.0,1055.9923) scale(95.99929999999999,95.99929999999999)" /><polyline points="0,0 0,4.5 -0.22,4.5 -0.22,5.5 0,5.5 0,10" stroke-width="0.1" transform="translate(0.0,1055.9923) scale(95.99929999999999,95.99929999999999)" /><polyline points="24.06,0 24.06,4.5 24.28,4.5 24.28,5.5 24.06,5.5 24.06,10" stroke-width="0.1" transform="translate(0.0,1055.9923) scale(95.99929999999999,95.99929999999999)" /><polyline points="31.56,0 31.56,4.5 31.34,4.5 31.34,5.5 31.56,5.5 31.56,10" stroke-width="0.1" transform="translate(0.0,1055.9923) scale(95.99929999999999,95.99929999999999)" /><polyline points="55.62,0 55.62,4.5 55.84,4.5 55.84,5.5 55.62,5.5 55.62,10" stroke-width="0.1" transform="translate(0.0,1055.9923) scale(95.99929999999999,95.99929999999999)" /><polyline points="63.12,0 63.12,4.5 62.9,4.5 62.9,5.5 63.12,5.5 63.12,10" stroke-width="0.1" transform="translate(0.0,1055.9923) scale(95.99929999999999,95.99929999999999)" /></g><g fill="red" id="part1" stroke="blue"><polygon points="0,0 25,0 25,16 0,16" stroke-width="0.1" transform="translate(0.0,2111.9846) scale(95.99929999999999,95.99929999999999)" /><polygon points="0,8 25,8" stroke-width="0.1" transform="translate(0.0,2111.9846) scale(95.99929999999999,95.99929999999999)" /><polygon points="0,0 0.72,0 0.72,0.22 0.22,0.22 0.22,0.5 0,0.5" stroke-width="0.1" transform="translate(23.999824999999998,23.999824999999998) translate(0.0,2111.9846) scale(95.99929999999999,95.99929999999999)" /><polygon points="0,0 0.72,0 0.72,0.22 0.22,0.22 0.22,0.5 0,0.5" stroke-width="0.1" transform="translate(2375.9826749999997,23.999824999999998) translate(0.0,2111.9846) scale(-95.99929999999999,95.99929999999999)" /><polygon points="0,0 0.72,0 0.72,0.22 0.22,0.22 0.22,0.5 0,0.5" stroke-width="0.1" transform="translate(2375.9826749999997,743.9945749999999) translate(0.0,2111.9846) scale(-95.99929999999999,-95.99929999999999)" /><polygon points="0,0 0.72,0 0.72,0.22 0.22,0.22 0.22,0.5 0,0.5" stroke-width="0.1" transform="translate(23.999824999999998,743.9945749999999) translate(0.0,2111.9846) scale(95.99929999999999,-95.99929999999999)" /><polygon points="0,0 0.72,0 0.72,0.22 0.22,0.22 0.22,0.5 0,0.5" stroke-width="0.1" transform="translate(23.999824999999998,791.9942249999999) translate(0.0,2111.9846) scale(95.99929999999999,95.99929999999999)" /><polygon points="0,0 0.72,0 0.72,0.22 0.22,0.22 0.22,0.5 0,0.5" stroke-width="0.1" transform="translate(2375.9826749999997,791.9942249999999) translate(0.0,2111.9846) scale(-95.99929999999999,95.99929999999999)" /><polygon points="0,0 0.72,0 0.72,0.22 0.22,0.22 0.22,0.5 0,0.5" stroke-width="0.1" transform="translate(2375.9826749999997,1511.9889749999998) translate(0.0,2111.9846) scale(-95.99929999999999,-95.99929999999999)" /><polygon points="0,0 0.72,0 0.72,0.22 0.22,0.22 0.22,0.5 0,0.5" stroke-width="0.1" transform="translate(23.999824999999998,1511.9889749999998) translate(0.0,2111.9846) scale(95.99929999999999,-95.99929999999999)" /></g></svg>